<?xml version="1.0" encoding="UTF-8" standalone="no"?>
<svg
   xmlns:dc="http://purl.org/dc/elements/1.1/"
   xmlns:cc="http://creativecommons.org/ns#"
   xmlns:rdf="http://www.w3.org/1999/02/22-rdf-syntax-ns#"
   xmlns:svg="http://www.w3.org/2000/svg"
   xmlns="http://www.w3.org/2000/svg"
   xmlns:sodipodi="http://sodipodi.sourceforge.net/DTD/sodipodi-0.dtd"
   xmlns:inkscape="http://www.inkscape.org/namespaces/inkscape"
   version="1.1"
   id="Laag_1"
   x="0px"
   y="0px"
   viewBox="0 0 809.47998 210.42"
   xml:space="preserve"
   sodipodi:docname="jobseeker-logo-purple-text.svg"
   width="809.47998"
   height="210.42"
   inkscape:version="1.0.2 (e86c870879, 2021-01-15)"><metadata
   id="metadata29"><rdf:RDF><cc:Work
       rdf:about=""><dc:format>image/svg+xml</dc:format><dc:type
         rdf:resource="http://purl.org/dc/dcmitype/StillImage" /><dc:title></dc:title></cc:Work></rdf:RDF></metadata><defs
   id="defs27" /><sodipodi:namedview
   pagecolor="#ffffff"
   bordercolor="#666666"
   borderopacity="1"
   objecttolerance="10"
   gridtolerance="10"
   guidetolerance="10"
   inkscape:pageopacity="0"
   inkscape:pageshadow="2"
   inkscape:window-width="2560"
   inkscape:window-height="1355"
   id="namedview25"
   showgrid="false"
   inkscape:zoom="1.008"
   inkscape:cx="404.74"
   inkscape:cy="112.26"
   inkscape:window-x="0"
   inkscape:window-y="0"
   inkscape:window-maximized="1"
   inkscape:current-layer="Laag_1"
   fit-margin-top="40"
   fit-margin-bottom="25"
   fit-margin-left="0"
   fit-margin-right="0"
   inkscape:document-rotation="0" />
<style
   type="text/css"
   id="style2">
	.st0{fill:#4A25AA;}
</style>
<path
   class="st0"
   d="m 252.67,63.28 c -13.89,0 -23.61,7.41 -28.17,11.84 l -1.28,1.24 V 40.02 h -23.39 v 116.23 h 23.39 v -12.09 l 1.3,1.39 c 7.69,8.22 17.69,12.75 28.15,12.75 24.89,0 41.24,-20.87 41.24,-47.51 0,-27.08 -15.25,-47.51 -41.24,-47.51 z m -5.8,74.97 c -12.82,0 -23.65,-12.87 -23.65,-28.1 0,-14.73 10.61,-26.71 23.65,-26.71 13.04,0 23.65,11.98 23.65,26.71 0,13.81 -8.85,28.1 -23.65,28.1 z"
   id="path4"
   style="fill:#4314b6;fill-opacity:1" />
<path
   class="st0"
   d="m 140.52,63.38 c -26.26,0 -47.63,21.29 -47.63,47.46 0,26.17 21.36,47.46 47.63,47.46 26.26,0 47.63,-21.29 47.63,-47.46 -0.01,-26.17 -21.37,-47.46 -47.63,-47.46 z m 0,74.72 c -13.36,0 -24.24,-12.26 -24.24,-27.32 0,-15.07 10.87,-27.32 24.24,-27.32 13.37,0 24.24,12.26 24.24,27.32 -0.01,15.06 -10.88,27.32 -24.24,27.32 z"
   id="path6"
   style="fill:#4314b6;fill-opacity:1" />
<polygon
   class="st0"
   points="669.53,544 692.89,544 692.92,509.9 700.24,509.9 725.86,544 752.43,544 717.74,498.23 751.96,453.06 725.39,453.06 698.47,489.73 692.92,489.73 692.89,427.74 669.53,427.74 "
   id="polygon8"
   transform="translate(-95.26,-387.74)"
   style="fill:#4314b6;fill-opacity:1" />
<path
   class="st0"
   d="m 57.81,112.21 c -0.07,14.23 -10.27,25.8 -23.56,25.8 -13.58,0 -21.09,-10.49 -21.09,-10.49 L 0,140.67 c 0,0 12.38,17.62 34.26,17.62 25.82,0 46.88,-21.32 46.95,-47.53 V 40.01 H 57.82 v 72.2 z"
   id="path10"
   style="fill:#4314b6;fill-opacity:1" />
<path
   class="st0"
   d="m 345.69,100.59 c -9.75,-2.06 -18.71,-4.54 -18.71,-10.11 0,-4.28 5.61,-7.02 13.62,-7.02 12.06,0 22.25,6.73 24.85,8.4 l 12.09,-16.1 c 0,0 -13.52,-12.46 -35.94,-12.46 -24.6,0 -37.95,14.83 -37.95,28.02 0,19.07 18.21,24.96 33.03,28.97 10.5,2.84 20.18,4.09 20.18,10.24 0,4.63 -4.95,7.6 -16.54,7.6 -14.04,0 -25.53,-10.99 -25.53,-10.99 l -12.35,14.71 c 0,0 13.01,16.45 37.42,16.45 25.16,0 40.4,-11.94 40.4,-28.02 0,-21.9 -19.26,-26.45 -34.57,-29.69 z"
   id="path12"
   style="fill:#4314b6;fill-opacity:1" />
<path
   class="st0"
   d="m 538.03,137.12 c -14.26,17.14 -36.63,28.22 -61.75,28.22 -25.12,0 -47.49,-11.07 -61.75,-28.22 l -15.27,13.01 c 17.96,21.47 45.8,35.29 77.02,35.29 31.22,0 59.06,-13.83 77.02,-35.3 z"
   id="path14"
   style="fill:#4314b6;fill-opacity:1" />
<path
   class="st0"
   d="m 430.09,63.38 c -22.14,0 -40.15,19.21 -40.15,42.82 0,5.64 0,15.96 0,15.96 h 80.31 c 0,0 0,-10.31 0,-15.96 -0.01,-23.61 -18.02,-42.82 -40.16,-42.82 z m -16.6,38.61 c 1.11,-10.45 8.12,-18.54 16.6,-18.54 8.48,0 15.49,8.09 16.6,18.54 z"
   id="path16"
   style="fill:#4314b6;fill-opacity:1" />
<path
   class="st0"
   d="m 522.26,63.38 c -22.14,0 -40.15,19.21 -40.15,42.82 0,5.64 0,15.96 0,15.96 h 80.31 c 0,0 0,-10.31 0,-15.96 C 562.41,82.59 544.4,63.38 522.26,63.38 Z m -16.6,38.61 c 1.11,-10.45 8.12,-18.54 16.6,-18.54 8.48,0 15.49,8.09 16.6,18.54 z"
   id="path18"
   style="fill:#4314b6;fill-opacity:1" />
<path
   class="st0"
   d="m 798.27,63.29 c -14.77,0 -22.85,16.16 -22.85,16.16 V 65.32 h -23.36 v 90.94 h 23.36 c 0,0 0,-39.43 0,-50.25 0,0 6.78,-20.64 23.03,-20.64 6.2,0 11.03,1.87 11.03,1.87 v -20.9 c -0.76,-0.67 -3.97,-3.05 -11.21,-3.05 z"
   id="path20"
   style="fill:#4314b6;fill-opacity:1" />
<path
   class="st0"
   d="m 697.6,63.29 c -21.04,0 -43.27,17.07 -43.27,47.52 0,21.54 14.38,47.52 45.76,47.52 21.87,0 34.37,-15.27 34.37,-15.27 L 722.8,129.73 c 0,0 -9.18,8.46 -20.8,8.46 -10.91,0 -21.26,-6.42 -24.57,-16.04 h 61.58 c 0,0 1.2,-4.44 1.2,-9.27 0,-34.51 -23.41,-49.59 -42.61,-49.59 z m -19.65,37.79 c 1.04,-6.35 6.48,-17.63 19.1,-17.63 12.62,0 18.83,12.13 19.27,17.75 l 0.06,0.79 h -38.67 z"
   id="path22"
   style="fill:#4314b6;fill-opacity:1" />
</svg>
